<svg width="165" height="12" viewBox="0 0 165 12" fill="none" xmlns="http://www.w3.org/2000/svg">
<path d="M3.59387 3.79545V4.80928C3.31709 4.62495 3.07106 4.50206 2.79428 4.40989C2.54825 4.31773 2.30222 4.287 2.1177 4.287C1.90243 4.287 1.74866 4.31773 1.62565 4.40989C1.50263 4.50206 1.44113 4.59422 1.44113 4.74783C1.44113 4.87072 1.53339 4.99361 1.71791 5.14722C1.90243 5.30083 2.20996 5.51588 2.70202 5.79238C3.13257 6.06887 3.4401 6.31465 3.59387 6.5297C3.77839 6.74476 3.8399 6.95981 3.8399 7.23631C3.8399 7.69714 3.68613 8.03508 3.37859 8.31157C3.07106 8.58807 2.67126 8.74168 2.17921 8.74168C1.84092 8.74168 1.56414 8.71096 1.28736 8.64951C1.01058 8.58807 0.733796 8.46518 0.395508 8.28085V7.17486C1.04133 7.63569 1.59489 7.85074 2.05619 7.85074C2.27147 7.85074 2.45599 7.7893 2.579 7.69714C2.73277 7.60497 2.79428 7.45136 2.79428 7.26703C2.79428 7.0827 2.39448 6.74476 1.59489 6.28393C0.795303 5.8231 0.395508 5.33155 0.395508 4.80928C0.395508 4.37917 0.549275 4.04123 0.85681 3.79545C1.16434 3.54968 1.56414 3.42679 2.08695 3.42679C2.54825 3.42679 3.07106 3.5804 3.59387 3.8569V3.79545ZM9.34476 2.41297V3.45751H10.9747V4.37917H9.34476V6.99053C9.34476 7.26703 9.43702 7.48208 9.59079 7.60497C9.71381 7.69714 9.86757 7.75858 10.0828 7.75858C10.4519 7.75858 10.8209 7.63569 11.2207 7.38992V8.34229C10.7902 8.55735 10.3904 8.68024 9.99059 8.68024C9.46778 8.68024 9.03723 8.52663 8.76045 8.25013C8.48367 7.94291 8.3299 7.57425 8.3299 7.0827V4.37917H7.43805V4.25628L9.34476 2.41297ZM19.3704 8.58807H18.3555V7.94291C18.1403 8.15796 17.8942 8.34229 17.6174 8.4959C17.3407 8.61879 17.0946 8.71096 16.8179 8.71096C16.2643 8.71096 15.8645 8.52663 15.5262 8.18869C15.2187 7.82002 15.0342 7.32847 15.0342 6.68331V3.51896H16.049V6.77548C16.049 7.5128 16.3873 7.91219 17.0946 7.91219C17.5559 7.91219 17.9865 7.66641 18.3248 7.20558V3.54968H19.3396V8.64951L19.3704 8.58807ZM28.3812 0.81543V8.58807H26.2284C25.4596 8.58807 24.8753 8.34229 24.414 7.88147C23.9527 7.38992 23.7374 6.74476 23.7374 5.91526C23.7374 5.17794 23.9834 4.5635 24.4447 4.10267C24.9368 3.61112 25.5211 3.39607 26.2899 3.39607C26.4744 3.39607 26.6282 3.42679 26.8127 3.42679C26.9665 3.45751 27.151 3.51896 27.3663 3.5804V0.81543H28.3812ZM27.3663 7.72786V4.47134C27.1818 4.40989 27.028 4.34845 26.905 4.31773C26.7512 4.287 26.5975 4.287 26.4437 4.287C25.9516 4.287 25.5518 4.44061 25.2443 4.77855C24.9368 5.1165 24.783 5.5466 24.783 6.06887C24.783 6.59115 24.906 6.99053 25.1213 7.26703C25.3673 7.57425 25.7979 7.75858 26.3514 7.75858H27.3663V7.72786ZM33.9475 3.45751V8.55735H32.9327V3.45751H33.9475ZM34.0398 1.92142C34.0398 2.07503 33.9783 2.22864 33.8553 2.35152C33.7323 2.47441 33.6092 2.53586 33.4247 2.53586C33.271 2.53586 33.1172 2.47441 32.9942 2.35152C32.8712 2.22864 32.8097 2.10575 32.8097 1.92142C32.8097 1.76781 32.8712 1.6142 32.9942 1.49131C33.1172 1.36842 33.2402 1.30698 33.4247 1.30698C33.5785 1.30698 33.7323 1.36842 33.8553 1.49131C33.9783 1.6142 34.0398 1.73709 34.0398 1.92142ZM40.9286 3.36535C41.7282 3.36535 42.4047 3.61112 42.9275 4.10267C43.4503 4.59422 43.6964 5.20866 43.6964 5.97671C43.6964 6.77548 43.4503 7.42064 42.9275 7.94291C42.4047 8.43446 41.7589 8.68024 40.9286 8.68024C40.1597 8.68024 39.5139 8.43446 38.9911 7.91219C38.4683 7.38992 38.2223 6.74476 38.2223 5.97671C38.2223 5.23938 38.4683 4.62495 38.9911 4.13339C39.5139 3.64184 40.1597 3.39607 40.9286 3.39607V3.36535ZM40.9286 4.287C40.4365 4.287 40.0675 4.44061 39.7292 4.77855C39.4216 5.08577 39.2679 5.51588 39.2679 6.00743C39.2679 6.56042 39.4216 6.99053 39.7292 7.32847C40.0367 7.66641 40.4365 7.82002 40.9286 7.82002C41.4821 7.82002 41.8819 7.66641 42.2202 7.32847C42.5277 7.02125 42.6815 6.56042 42.6815 6.00743C42.6815 5.51588 42.5277 5.08577 42.1895 4.77855C41.8512 4.47134 41.4514 4.287 40.9286 4.287ZM55.3519 3.48823V8.58807H54.3371V3.48823H55.3519ZM55.4442 1.95214C55.4442 2.10575 55.3827 2.25936 55.2597 2.38225C55.1367 2.50513 55.0136 2.56658 54.8291 2.56658C54.6754 2.56658 54.5216 2.50513 54.3986 2.38225C54.2756 2.25936 54.2141 2.13647 54.2141 1.95214C54.2141 1.79853 54.2756 1.64492 54.3986 1.52203C54.5216 1.39915 54.6446 1.3377 54.8291 1.3377C54.9829 1.3377 55.1367 1.39915 55.2597 1.52203C55.3827 1.64492 55.4442 1.76781 55.4442 1.95214ZM60.9491 3.48823V4.16412C61.3796 3.64184 61.9024 3.39607 62.4867 3.39607C63.0095 3.39607 63.4093 3.54968 63.7169 3.88762C64.0552 4.25628 64.2397 4.77855 64.2397 5.45444V8.61879H63.2248V5.45444C63.2248 5.08577 63.1326 4.77855 62.948 4.5635C62.7635 4.34845 62.5175 4.22556 62.21 4.22556C61.9639 4.22556 61.7794 4.287 61.5949 4.37917C61.4104 4.47134 61.1951 4.68639 60.9491 4.96289V8.61879H59.9342V3.51896H60.9491V3.48823ZM69.9906 2.44369V3.48823H71.6205V4.40989H69.9906V7.02125C69.9906 7.29775 70.0828 7.5128 70.2366 7.63569C70.3596 7.72786 70.5134 7.7893 70.7287 7.7893C71.0977 7.7893 71.4667 7.66641 71.8665 7.42064V8.37302C71.436 8.58807 71.0362 8.71096 70.6364 8.71096C70.1136 8.71096 69.683 8.55735 69.4063 8.28085C69.1295 7.97363 68.9757 7.60497 68.9757 7.11342V4.40989H68.0839V4.287L69.9906 2.44369ZM80.0162 7.14414V8.12724C79.7087 8.34229 79.3704 8.4959 79.0629 8.58807C78.7553 8.68024 78.3863 8.74168 77.9557 8.74168C77.1869 8.74168 76.5718 8.46518 76.1105 7.91219C75.68 7.38992 75.4647 6.77548 75.4647 6.00743C75.4647 5.23938 75.68 4.59422 76.1105 4.13339C76.5411 3.64184 77.1254 3.42679 77.8327 3.42679C78.5093 3.42679 79.0629 3.67257 79.4626 4.13339C79.8624 4.59422 80.047 5.30083 80.047 6.22248H76.4488C76.6026 7.23631 77.1869 7.75858 78.171 7.75858C78.4785 7.75858 78.7553 7.69714 79.0629 7.60497C79.3704 7.5128 79.6472 7.35919 79.9547 7.14414H80.0162ZM76.5411 5.5466H79.1244C79.1244 5.17794 79.0013 4.87072 78.7861 4.62495C78.5708 4.37917 78.294 4.287 77.925 4.287C77.1561 4.287 76.6948 4.71711 76.5411 5.5466ZM84.4447 3.51896H85.4596V4.68639C85.9824 3.82618 86.4744 3.39607 86.9665 3.39607C87.3663 3.39607 87.7661 3.5804 88.1966 3.97979L87.6738 4.87072C87.5201 4.71711 87.3355 4.59422 87.1818 4.50206C87.028 4.40989 86.8742 4.37917 86.7205 4.37917C86.3822 4.37917 86.0746 4.53278 85.8286 4.84C85.5826 5.14722 85.4596 5.51588 85.4596 5.94599V8.61879H84.4447V3.51896ZM93.0864 3.51896V8.61879H92.0716V3.51896H93.0864ZM93.1787 1.98286C93.1787 2.13647 93.1172 2.29008 92.9942 2.41297C92.8712 2.53586 92.7481 2.5973 92.5636 2.5973C92.4099 2.5973 92.2561 2.53586 92.1331 2.41297C92.0101 2.29008 91.9486 2.16719 91.9486 1.98286C91.9486 1.82925 92.0101 1.67564 92.1331 1.55276C92.2561 1.42987 92.3791 1.36842 92.5636 1.36842C92.7174 1.36842 92.8712 1.42987 92.9942 1.55276C93.1172 1.67564 93.1787 1.79853 93.1787 1.98286ZM100.067 3.42679C100.867 3.42679 101.544 3.67257 102.066 4.16412C102.589 4.65567 102.835 5.27011 102.835 6.03815C102.835 6.83692 102.589 7.48208 102.066 8.00435C101.544 8.4959 100.898 8.74168 100.067 8.74168C99.2986 8.74168 98.6528 8.4959 98.13 7.97363C97.6072 7.45136 97.3612 6.8062 97.3612 6.03815C97.3612 5.30083 97.6072 4.68639 98.13 4.19484C98.6528 3.70329 99.2986 3.45751 100.067 3.45751V3.42679ZM100.067 4.34845C99.5754 4.34845 99.2064 4.50206 98.8681 4.84C98.5605 5.14722 98.4068 5.57732 98.4068 6.06887C98.4068 6.62187 98.5605 7.05198 98.8681 7.38992C99.1756 7.72786 99.5754 7.88147 100.067 7.88147C100.621 7.88147 101.021 7.72786 101.359 7.38992C101.667 7.0827 101.82 6.62187 101.82 6.06887C101.82 5.57732 101.667 5.14722 101.328 4.84C100.99 4.53278 100.59 4.34845 100.067 4.34845ZM107.202 3.54968H108.217V4.71711C108.74 3.8569 109.232 3.42679 109.724 3.42679C110.124 3.42679 110.524 3.61112 110.954 4.01051L110.431 4.90144C110.278 4.74783 110.093 4.62495 109.939 4.53278C109.786 4.44061 109.632 4.40989 109.478 4.40989C109.14 4.40989 108.832 4.5635 108.586 4.87072C108.34 5.17794 108.217 5.5466 108.217 5.97671V8.64951H107.202V3.54968ZM125.562 0.907595V8.68024H123.409C122.641 8.68024 122.056 8.43446 121.595 7.97363C121.134 7.48208 120.918 6.83692 120.918 6.00743C120.918 5.27011 121.164 4.65567 121.626 4.19484C122.118 3.70329 122.702 3.48823 123.471 3.48823C123.655 3.48823 123.809 3.51896 123.994 3.51896C124.147 3.54968 124.332 3.61112 124.547 3.67257V0.907595H125.562ZM124.547 7.82002V4.5635C124.363 4.50206 124.209 4.44061 124.086 4.40989C123.932 4.37917 123.778 4.37917 123.625 4.37917C123.133 4.37917 122.733 4.53278 122.425 4.87072C122.118 5.20866 121.964 5.63877 121.964 6.16104C121.964 6.68331 122.087 7.0827 122.302 7.35919C122.548 7.66641 122.979 7.85074 123.532 7.85074H124.547V7.82002ZM134.388 7.20558V8.18869C134.081 8.40374 133.743 8.55735 133.435 8.64951C133.127 8.74168 132.758 8.80312 132.328 8.80312C131.559 8.80312 130.944 8.52663 130.483 7.97363C130.052 7.45136 129.837 6.83692 129.837 6.06887C129.837 5.30083 130.052 4.65567 130.483 4.19484C130.913 3.70329 131.497 3.48823 132.205 3.48823C132.881 3.48823 133.435 3.73401 133.835 4.19484C134.235 4.65567 134.419 5.36227 134.419 6.28393H130.821C130.975 7.29775 131.559 7.82002 132.543 7.82002C132.851 7.82002 133.127 7.75858 133.435 7.66641C133.743 7.57425 134.019 7.42064 134.327 7.20558H134.388ZM130.913 5.60805H133.496C133.496 5.23938 133.373 4.93216 133.158 4.68639C132.943 4.44061 132.666 4.34845 132.297 4.34845C131.528 4.34845 131.067 4.77855 130.913 5.60805ZM141.708 3.88762V4.90144C141.431 4.71711 141.185 4.59422 140.908 4.50206C140.662 4.40989 140.416 4.37917 140.231 4.37917C140.016 4.37917 139.862 4.40989 139.739 4.50206C139.616 4.59422 139.555 4.68639 139.555 4.84C139.555 4.96289 139.647 5.08577 139.832 5.23938C140.016 5.39299 140.324 5.60805 140.816 5.88454C141.246 6.16104 141.554 6.40682 141.708 6.62187C141.892 6.83692 141.954 7.05198 141.954 7.32847C141.954 7.7893 141.8 8.12724 141.492 8.40374C141.185 8.68024 140.785 8.83385 140.293 8.83385C139.955 8.83385 139.678 8.80312 139.401 8.74168C139.124 8.68024 138.848 8.55735 138.509 8.37302V7.26703C139.155 7.72786 139.709 7.94291 140.17 7.94291C140.385 7.94291 140.57 7.88147 140.693 7.7893C140.847 7.69714 140.908 7.54353 140.908 7.35919C140.908 7.17486 140.508 6.83692 139.709 6.37609C138.909 5.91526 138.509 5.42371 138.509 4.90144C138.509 4.47134 138.663 4.13339 138.971 3.88762C139.278 3.64184 139.678 3.51896 140.201 3.51896C140.662 3.51896 141.185 3.67257 141.708 3.94906V3.88762ZM147.305 3.5804V8.68024H146.29V3.5804H147.305ZM147.397 2.04431C147.397 2.19792 147.336 2.35152 147.213 2.47441C147.09 2.5973 146.966 2.65874 146.782 2.65874C146.628 2.65874 146.474 2.5973 146.351 2.47441C146.228 2.35152 146.167 2.22864 146.167 2.04431C146.167 1.8907 146.228 1.73709 146.351 1.6142C146.474 1.49131 146.597 1.42987 146.782 1.42987C146.936 1.42987 147.09 1.49131 147.213 1.6142C147.336 1.73709 147.397 1.85997 147.397 2.04431ZM155.977 3.5804V4.37917H154.962C155.147 4.5635 155.301 4.74783 155.362 4.93216C155.454 5.1165 155.485 5.30083 155.485 5.51588C155.485 5.70021 155.424 5.91526 155.331 6.13032C155.239 6.34537 155.116 6.5297 154.993 6.65259C154.778 6.89837 154.347 7.05198 153.701 7.17486C153.179 7.26703 152.902 7.42064 152.902 7.60497C152.902 7.85074 153.425 8.0658 154.47 8.25013C154.993 8.34229 155.362 8.52663 155.608 8.80312C155.823 9.0489 155.946 9.3254 155.946 9.69406C155.946 10.2163 155.731 10.6157 155.301 10.8922C154.87 11.1687 154.286 11.3223 153.517 11.3223C152.84 11.3223 152.256 11.1687 151.826 10.8922C151.395 10.6157 151.18 10.2471 151.18 9.78622C151.18 9.0489 151.61 8.58807 152.471 8.37302C152.133 8.15796 151.949 7.94291 151.949 7.72786C151.949 7.57425 152.01 7.42064 152.164 7.29775C152.318 7.17486 152.502 7.0827 152.748 7.02125C152.348 6.83692 152.072 6.59115 151.887 6.34537C151.703 6.06887 151.61 5.76166 151.61 5.39299C151.61 4.84 151.795 4.40989 152.195 4.10267C152.594 3.79545 153.148 3.64184 153.825 3.64184H155.916L155.977 3.5804ZM154.563 5.36227C154.563 5.1165 154.47 4.90144 154.286 4.71711C154.101 4.53278 153.855 4.44061 153.578 4.44061C153.302 4.44061 153.056 4.53278 152.871 4.71711C152.687 4.90144 152.564 5.1165 152.564 5.36227C152.564 5.63877 152.656 5.85382 152.84 6.03815C153.025 6.22248 153.271 6.28393 153.578 6.28393C153.855 6.28393 154.101 6.19176 154.286 6.00743C154.47 5.8231 154.563 5.60805 154.563 5.30083V5.36227ZM154.993 9.7555C154.993 9.47901 154.778 9.26395 154.378 9.11034C154.071 8.98745 153.701 8.92601 153.302 8.92601C152.963 8.92601 152.687 8.98745 152.471 9.14106C152.256 9.29467 152.133 9.47901 152.133 9.69406C152.133 10.2163 152.594 10.4928 153.548 10.4928C154.009 10.4928 154.347 10.4314 154.593 10.3085C154.839 10.1856 154.962 10.0013 154.962 9.7555H154.993ZM160.929 3.5804V4.25628C161.359 3.73401 161.882 3.48823 162.466 3.48823C162.989 3.48823 163.389 3.64184 163.696 3.97979C164.035 4.34845 164.219 4.87072 164.219 5.5466V8.71096H163.204V5.5466C163.204 5.17794 163.112 4.87072 162.928 4.65567C162.743 4.44061 162.497 4.31773 162.189 4.31773C161.943 4.31773 161.759 4.37917 161.574 4.47134C161.39 4.5635 161.175 4.77855 160.929 5.05505V8.71096H159.914V3.61112H160.929V3.5804Z" fill="#949599"/>
</svg>
